<mxfile host="app.diagrams.net" modified="2023-12-05T02:51:07.978Z" agent="Mozilla/5.0 (Macintosh; Intel Mac OS X 10_15_7) AppleWebKit/537.36 (KHTML, like Gecko) Chrome/119.0.0.0 Safari/537.36" version="22.1.5" etag="0QSvjQ0pwvRyVDzsmr-p" type="github">
  <diagram name="第 1 页" id="-0iXeGI39CaaKbn-2XmQ">
    <mxGraphModel>
      <root>
        <mxCell id="0" />
        <mxCell id="1" parent="0" />
      </root>
    </mxGraphModel>
  </diagram>
</mxfile>
